<svg xmlns="http://www.w3.org/2000/svg" version="1.1" xmlns:xlink="http://www.w3.org/1999/xlink" xmlns:svgjs="http://svgjs.dev/svgjs" width="1000" height="623" viewBox="0 0 1000 623"><g transform="matrix(1,0,0,1,-0.6060606060606233,0.2522267206477409)"><svg viewBox="0 0 396 247" data-background-color="#ffffff" preserveAspectRatio="xMidYMid meet" height="623" width="1000" xmlns="http://www.w3.org/2000/svg" xmlns:xlink="http://www.w3.org/1999/xlink"><defs></defs><g id="tight-bounds" transform="matrix(1,0,0,1,0.2400000000000091,-0.09999999999999432)"><svg viewBox="0 0 395.52 247.2" height="247.2" width="395.52"><g><svg></svg></g><g><svg viewBox="0 0 395.52 247.2" height="247.2" width="395.52"><g transform="matrix(1,0,0,1,75.54432,77.5748465202312)"><svg viewBox="0 0 244.43135999999998 92.05030695953756" height="92.05030695953756" width="244.43135999999998"><g><svg viewBox="0 0 244.43135999999998 92.05030695953756" height="92.05030695953756" width="244.43135999999998"><g><svg viewBox="0 0 244.43135999999998 92.05030695953756" height="92.05030695953756" width="244.43135999999998"><g><svg viewBox="0 0 244.43135999999998 92.05030695953756" height="92.05030695953756" width="244.43135999999998"><g><svg viewBox="0 0 244.43135999999998 92.05030695953756" height="92.05030695953756" width="244.43135999999998"><g><svg viewBox="0 0 244.43135999999998 92.05030695953756" height="92.05030695953756" width="244.43135999999998"><g transform="matrix(1,0,0,1,0,0)"><svg width="244.43135999999998" viewBox="1.5499999523162842 -42.400001525878906 172.989990234375 65.1500015258789" height="92.05030695953756" data-palette-color="#111111"><path d="M37.75-9.1Q38.5-9.4 39-9.4L39-9.4Q39.8-9.4 40.2-8.8 40.6-8.2 40.6-7.25L40.6-7.25Q40.6-5.75 39.88-4.7 39.15-3.65 37.4-2.8L37.4-2.8Q34.45-1.4 29.75-0.58 25.05 0.25 20.5 0.25L20.5 0.25Q14.2 0.25 9.95-1.18 5.7-2.6 3.63-5.1 1.55-7.6 1.55-10.75L1.55-10.75Q1.55-15.05 4.33-18.07 7.1-21.1 12.5-22.45L12.5-22.45Q9.55-23.3 7.98-25.45 6.4-27.6 6.4-30.25L6.4-30.25Q6.4-33.85 8.68-36.63 10.95-39.4 14.8-40.9 18.65-42.4 23.25-42.4L23.25-42.4Q29.45-42.4 32.55-39.73 35.65-37.05 35.65-32.8L35.65-32.8Q35.65-29.85 34.58-28.03 33.5-26.2 31.5-26.2L31.5-26.2Q30.1-26.2 29.3-26.83 28.5-27.45 28.5-28.7L28.5-28.7Q28.5-29.55 28.75-30.55L28.75-30.55Q29-32.2 29-32.8L29-32.8Q29-34.6 27.65-35.73 26.3-36.85 23.15-36.85L23.15-36.85Q18.9-36.85 16.35-35.05 13.8-33.25 13.8-30.2L13.8-30.2Q13.8-27.85 15.73-26.33 17.65-24.8 22-24.65L22-24.65Q23.1-24.6 23.55-24.15 24-23.7 24-22.65L24-22.65Q24-19.35 21-19.3L21-19.3Q16.85-19.2 14.13-18.15 11.4-17.1 10.18-15.48 8.95-13.85 8.95-12L8.95-12Q8.95-8.9 11.85-7.33 14.75-5.75 21.05-5.75L21.05-5.75Q25.2-5.75 29.83-6.73 34.45-7.7 37.75-9.1L37.75-9.1ZM40.25 0.25Q38.35 0.25 37.57-1.75 36.8-3.75 36.8-8.15L36.8-8.15Q36.8-14.65 38.65-20.5L38.65-20.5Q39.1-21.95 40.12-22.63 41.15-23.3 43-23.3L43-23.3Q44-23.3 44.4-23.05 44.8-22.8 44.8-22.1L44.8-22.1Q44.8-21.3 44.05-18.5L44.05-18.5Q43.55-16.5 43.25-15 42.95-13.5 42.75-11.3L42.75-11.3Q44.4-15.6 46.45-18.3 48.5-21 50.47-22.15 52.45-23.3 54.1-23.3L54.1-23.3Q57.35-23.3 57.35-20.05L57.35-20.05Q57.35-19.4 56.9-16.9L56.9-16.9Q56.5-14.9 56.5-14.4L56.5-14.4Q56.5-12.65 57.75-12.65L57.75-12.65Q59.15-12.65 61.35-14.85L61.35-14.85Q62-15.5 62.7-15.5L62.7-15.5Q63.35-15.5 63.72-14.93 64.1-14.35 64.1-13.4L64.1-13.4Q64.1-11.55 63.1-10.5L63.1-10.5Q61.7-9.05 59.82-8.03 57.95-7 55.85-7L55.85-7Q53.2-7 51.82-8.35 50.45-9.7 50.45-12L50.45-12Q50.45-12.75 50.6-13.5L50.6-13.5Q50.7-14.5 50.7-14.85L50.7-14.85Q50.7-15.65 50.15-15.65L50.15-15.65Q49.4-15.65 48.17-13.98 46.95-12.3 45.75-9.55 44.55-6.8 43.8-3.75L43.8-3.75Q43.25-1.4 42.52-0.58 41.8 0.25 40.25 0.25L40.25 0.25ZM85.05-11.05Q85.7-11.05 86.07-10.43 86.45-9.8 86.45-8.85L86.45-8.85Q86.45-7.7 86.1-7.05 85.75-6.4 85-5.9L85-5.9 75.4 0.55Q73.5 10.9 70.42 16.82 67.35 22.75 62.6 22.75L62.6 22.75Q60.05 22.75 58.45 21.18 56.85 19.6 56.85 17.05L56.85 17.05Q56.85 14.7 57.92 12.25 59 9.8 61.92 6.63 64.85 3.45 70.2-0.65L70.2-0.65 70.35-1.8Q70.7-3.65 71.15-7.1L71.15-7.1Q70.15-3.5 68.35-1.63 66.55 0.25 64.55 0.25L64.55 0.25Q62.3 0.25 60.87-1.83 59.45-3.9 59.45-7L59.45-7Q59.45-10.75 59.95-13.88 60.45-17 61.6-20.5L61.6-20.5Q62.1-22 63-22.65 63.9-23.3 65.85-23.3L65.85-23.3Q66.95-23.3 67.37-22.95 67.8-22.6 67.8-21.9L67.8-21.9Q67.8-21.5 67.25-19.2L67.25-19.2Q66.75-17.35 66.45-15.85L66.45-15.85Q66.05-13.8 65.75-11.93 65.45-10.05 65.45-8.85L65.45-8.85Q65.45-6.95 66.5-6.95L66.5-6.95Q67.25-6.95 68.37-8.45 69.5-9.95 70.77-13 72.05-16.05 73.25-20.5L73.25-20.5Q73.65-22 74.47-22.65 75.3-23.3 76.95-23.3L76.95-23.3Q78.1-23.3 78.55-23 79-22.7 79-22L79-22Q79-20.75 77.7-13.4L77.7-13.4 76.4-5.35Q80.25-8.25 83.9-10.65L83.9-10.65Q84.55-11.05 85.05-11.05L85.05-11.05ZM63.15 17.9Q64.4 17.9 65.95 15 67.5 12.1 69.05 5.35L69.05 5.35Q65.2 8.6 63.47 11.28 61.75 13.95 61.75 15.95L61.75 15.95Q61.75 16.8 62.07 17.35 62.4 17.9 63.15 17.9L63.15 17.9ZM92.94 0.25Q88.04 0.25 85.32-2.53 82.59-5.3 82.59-9.85L82.59-9.85Q82.59-13.9 84.19-16.95 85.79-20 88.34-21.65 90.89-23.3 93.69-23.3L93.69-23.3Q96.44-23.3 97.97-21.68 99.49-20.05 99.49-17.5L99.49-17.5Q99.49-15.4 98.57-13.95 97.64-12.5 96.14-12.5L96.14-12.5Q95.19-12.5 94.62-12.95 94.04-13.4 94.04-14.2L94.04-14.2Q94.04-14.55 94.14-15 94.24-15.45 94.29-15.65L94.29-15.65Q94.54-16.4 94.54-17.05L94.54-17.05Q94.54-17.7 94.22-18.05 93.89-18.4 93.29-18.4L93.29-18.4Q92.14-18.4 91.14-17.38 90.14-16.35 89.54-14.6 88.94-12.85 88.94-10.75L88.94-10.75Q88.94-4.95 93.99-4.95L93.99-4.95Q96.04-4.95 98.42-6.33 100.79-7.7 103.09-10.45L103.09-10.45Q103.69-11.15 104.44-11.15L104.44-11.15Q105.09-11.15 105.47-10.55 105.84-9.95 105.84-8.9L105.84-8.9Q105.84-7 104.89-5.8L104.89-5.8Q102.54-2.9 99.27-1.33 95.99 0.25 92.94 0.25L92.94 0.25ZM111.09 1.35Q108.49 1.35 107.12 0.15 105.74-1.05 105.74-2.55L105.74-2.55Q105.74-3.85 106.69-4.8 107.64-5.75 109.49-5.75L109.49-5.75Q110.14-5.75 111.02-5.63 111.89-5.5 112.34-5.45L112.34-5.45Q112.29-6.75 111.77-7.9 111.24-9.05 110.44-10.13 109.64-11.2 108.94-12L108.94-12Q107.39-9.05 105.87-7.1 104.34-5.15 102.54-3.4L102.54-3.4Q101.64-2.5 100.64-2.5L100.64-2.5Q99.84-2.5 99.34-3.08 98.84-3.65 98.84-4.5L98.84-4.5Q98.84-5.5 99.54-6.35L99.54-6.35 100.19-7.15Q102.94-10.55 104.34-12.75L104.34-12.75Q105.19-14.2 106.34-16.63 107.49-19.05 108.59-21.65L108.59-21.65Q109.54-23.85 112.54-23.85L112.54-23.85Q113.94-23.85 114.49-23.6 115.04-23.35 115.04-22.8L115.04-22.8Q115.04-22.5 114.84-21.85 114.64-21.2 114.29-20.55L114.29-20.55Q113.39-18.75 113.39-17.5L113.39-17.5Q113.39-16.75 113.92-15.85 114.44-14.95 115.54-13.6L115.54-13.6Q117.14-11.5 117.97-10.03 118.79-8.55 118.79-6.8L118.79-6.8Q118.79-6.3 118.69-5.4L118.69-5.4Q121.14-6.35 124.44-10.45L124.44-10.45Q125.04-11.15 125.79-11.15L125.79-11.15Q126.44-11.15 126.82-10.55 127.19-9.95 127.19-8.9L127.19-8.9Q127.19-7 126.24-5.8L126.24-5.8Q123.74-2.7 121.47-1.58 119.19-0.45 115.84-0.35L115.84-0.35Q113.84 1.35 111.09 1.35L111.09 1.35ZM148.64-15.35Q149.29-15.35 149.64-14.7 149.99-14.05 149.99-13.05L149.99-13.05Q149.99-10.65 148.54-10.2L148.54-10.2Q145.54-9.15 141.94-9L141.94-9Q140.99-4.8 138.19-2.27 135.39 0.25 131.84 0.25L131.84 0.25Q128.84 0.25 126.71-1.2 124.59-2.65 123.49-5.05 122.39-7.45 122.39-10.25L122.39-10.25Q122.39-14.05 123.84-17.03 125.29-20 127.84-21.68 130.39-23.35 133.49-23.35L133.49-23.35Q137.29-23.35 139.61-20.73 141.94-18.1 142.34-14.25L142.34-14.25Q144.69-14.4 147.94-15.25L147.94-15.25Q148.34-15.35 148.64-15.35L148.64-15.35ZM132.24-5.05Q133.84-5.05 135.01-6.35 136.19-7.65 136.59-10.1L136.59-10.1Q135.04-11.15 134.21-12.85 133.39-14.55 133.39-16.45L133.39-16.45Q133.39-17.25 133.54-18.05L133.54-18.05 133.29-18.05Q131.29-18.05 129.96-16.13 128.64-14.2 128.64-10.7L128.64-10.7Q128.64-7.95 129.71-6.5 130.79-5.05 132.24-5.05L132.24-5.05ZM149.24 0.25Q147.34 0.25 146.56-1.75 145.79-3.75 145.79-8.15L145.79-8.15Q145.79-14.65 147.64-20.5L147.64-20.5Q148.09-21.95 149.11-22.63 150.14-23.3 151.99-23.3L151.99-23.3Q152.99-23.3 153.39-23.05 153.79-22.8 153.79-22.1L153.79-22.1Q153.79-21.3 153.04-18.5L153.04-18.5Q152.54-16.5 152.24-15 151.94-13.5 151.74-11.3L151.74-11.3Q153.39-15.6 155.44-18.3 157.49-21 159.46-22.15 161.44-23.3 163.09-23.3L163.09-23.3Q166.34-23.3 166.34-20.05L166.34-20.05Q166.34-18.1 165.24-13L165.24-13Q164.29-8.65 164.29-7.25L164.29-7.25Q164.29-5.25 165.74-5.25L165.74-5.25Q166.74-5.25 168.11-6.48 169.49-7.7 171.79-10.45L171.79-10.45Q172.39-11.15 173.14-11.15L173.14-11.15Q173.79-11.15 174.16-10.55 174.54-9.95 174.54-8.9L174.54-8.9Q174.54-6.9 173.59-5.8L173.59-5.8Q171.44-3.15 168.96-1.45 166.49 0.25 163.34 0.25L163.34 0.25Q160.79 0.25 159.49-1.23 158.19-2.7 158.19-5.5L158.19-5.5Q158.19-6.9 158.89-10.5L158.89-10.5Q159.54-13.65 159.54-14.85L159.54-14.85Q159.54-15.65 158.99-15.65L158.99-15.65Q158.34-15.65 157.16-13.98 155.99-12.3 154.76-9.55 153.54-6.8 152.79-3.75L152.79-3.75Q152.24-1.4 151.51-0.58 150.79 0.25 149.24 0.25L149.24 0.25Z" opacity="1" transform="matrix(1,0,0,1,0,0)" fill="#111111" class="undefined-text-0" data-fill-palette-color="primary" id="text-0"></path></svg></g></svg></g></svg></g></svg></g></svg></g></svg></g></svg></g><g><path d="M244.431 191.356A122.216 122.216 0 1 1 244.431 55.844L236.13 55.844A113.914 113.914 0 1 0 236.13 191.356L244.431 191.356" fill="#111111" stroke="transparent" data-fill-palette-color="tertiary"></path></g></svg></g></svg><rect width="395.52" height="247.2" fill="none" stroke="none" visibility="hidden"></rect></g></svg></g></svg>